#Comment line ignore any data following # character 
#Hierarchical Translation and Rotation (.htr) file 
[Header]	
#Header keywords are followed by a single value 
FileType HTR		#Single word string
DataType HTRS		#Translation followed by rotation and scale data
FileVersion 1		#integer
NumSegments 84		#integer
NumFrames 2		#integer
DataFrameRate 30		#integer, data frame rate in this file
EulerRotationOrder ZYX
CalibrationUnits mm
RotationUnits Degrees
GlobalAxisofGravity Y
BoneLengthAxis Y
ScaleFactor 1.00
[SegmentNames&Hierarchy]
#CHILD	PARENT
MASTER GLOBAL
root MASTER
chest root
L_mid_tent01 root
R_mid_tent01 root
spine01 root
Bip01_Neck chest
L_humerus chest
R_humerus chest
weapon_bone chest
Bip01_Head Bip01_Neck
eye_left_bone Bip01_Head
eye_right_bone Bip01_Head
L_forearm L_humerus
L_front_hand L_forearm
L_weapon_bone L_forearm
L_front_hand01_01 L_front_hand
L_front_hand02_01 L_front_hand
L_front_hand03_01 L_front_hand
L_front_hand01_02 L_front_hand01_01
L_front_hand02_02 L_front_hand02_01
L_front_hand03_02 L_front_hand03_01
R_forearm R_humerus
R_front_hand R_forearm
R_weapon_bone R_forearm
R_front_hand01_01 R_front_hand
R_front_hand02_01 R_front_hand
R_front_hand03_01 R_front_hand
R_front_hand01_02 R_front_hand01_01
R_front_hand02_02 R_front_hand02_01
R_front_hand03_02 R_front_hand03_01
null_rope01_connect L_mid_tent01
Rope1_Seg01 null_rope01_connect
Rope1_Seg02 Rope1_Seg01
Rope1_Seg03 Rope1_Seg02
Rope1_Seg04 Rope1_Seg03
Rope1_Seg05 Rope1_Seg04
Rope1_Seg06 Rope1_Seg05
Rope1_Seg07 Rope1_Seg06
Rope1_Seg09 Rope1_Seg07
L_mid_hand01 Rope1_Seg09
L_mid_hand02 Rope1_Seg09
L_mid_hand03 Rope1_Seg09
null_rope02_connect R_mid_tent01
Rope2_Seg01 null_rope02_connect
Rope2_Seg02 Rope2_Seg01
Rope2_Seg03 Rope2_Seg02
Rope2_Seg04 Rope2_Seg03
Rope2_Seg05 Rope2_Seg04
Rope2_Seg06 Rope2_Seg05
Rope2_Seg07 Rope2_Seg06
Rope2_Seg09 Rope2_Seg07
R_mid_hand01 Rope2_Seg09
R_mid_hand02 Rope2_Seg09
R_mid_hand03 Rope2_Seg09
spine02 spine01
spine03 spine02
pelvis spine03
null_rope03_connect pelvis
null_rope04_connect pelvis
Rope3_Seg01 null_rope03_connect
Rope3_Seg02 Rope3_Seg01
Rope3_Seg03 Rope3_Seg02
Rope3_Seg04 Rope3_Seg03
Rope3_Seg05 Rope3_Seg04
Rope3_Seg06 Rope3_Seg05
Rope3_Seg07 Rope3_Seg06
Rope3_Seg08 Rope3_Seg07
Rope3_Seg09 Rope3_Seg08
R_rear_hand01 Rope3_Seg09
R_rear_hand02 Rope3_Seg09
R_rear_hand03 Rope3_Seg09
Rope4_Seg01 null_rope04_connect
Rope4_Seg02 Rope4_Seg01
Rope4_Seg03 Rope4_Seg02
Rope4_Seg04 Rope4_Seg03
Rope4_Seg05 Rope4_Seg04
Rope4_Seg06 Rope4_Seg05
Rope4_Seg07 Rope4_Seg06
Rope4_Seg08 Rope4_Seg07
Rope4_Seg09 Rope4_Seg08
L_rear_hand01 Rope4_Seg09
L_rear_hand02 Rope4_Seg09
L_rear_hand03 Rope4_Seg09
[BasePosition]
#SegmentName Tx, Ty, Tz, Rx, Ry, Rz, BoneLength
MASTER 0.000000 0.000000 0.000000 -90.000000 0.000000 0.000000 10.000000 
root 0.000000 0.000000 0.000000 0.000000 0.000000 0.000000 10.000000 
chest 0.000000 0.000000 0.000000 0.000000 0.000000 0.000000 10.000000 
L_mid_tent01 0.000000 0.000000 0.000000 0.000000 0.000000 0.000000 10.000000 
R_mid_tent01 0.000000 0.000000 0.000000 0.000000 0.000000 0.000000 10.000000 
spine01 0.000000 0.000000 0.000000 0.000000 0.000000 0.000000 10.000000 
Bip01_Neck 0.000000 0.000000 0.000000 0.000000 0.000000 0.000000 10.000000 
L_humerus 0.000000 0.000000 0.000000 0.000000 0.000000 0.000000 10.000000 
R_humerus 0.000000 0.000000 0.000000 0.000000 0.000000 0.000000 10.000000 
weapon_bone 0.000000 0.000000 0.000000 0.000000 0.000000 0.000000 10.000000 
Bip01_Head 0.000000 0.000000 0.000000 0.000000 0.000000 0.000000 10.000000 
eye_left_bone 0.000000 0.000000 0.000000 0.000000 0.000000 0.000000 10.000000 
eye_right_bone 0.000000 0.000000 0.000000 0.000000 0.000000 0.000000 10.000000 
L_forearm 0.000000 0.000000 0.000000 0.000000 0.000000 0.000000 10.000000 
L_front_hand 0.000000 0.000000 0.000000 0.000000 0.000000 0.000000 10.000000 
L_weapon_bone 0.000000 0.000000 0.000000 0.000000 0.000000 0.000000 10.000000 
L_front_hand01_01 0.000000 0.000000 0.000000 0.000000 0.000000 0.000000 10.000000 
L_front_hand02_01 0.000000 0.000000 0.000000 0.000000 0.000000 0.000000 10.000000 
L_front_hand03_01 0.000000 0.000000 0.000000 0.000000 0.000000 0.000000 10.000000 
L_front_hand01_02 0.000000 0.000000 0.000000 0.000000 0.000000 0.000000 10.000000 
L_front_hand02_02 0.000000 0.000000 0.000000 0.000000 0.000000 0.000000 10.000000 
L_front_hand03_02 0.000000 0.000000 0.000000 0.000000 0.000000 0.000000 10.000000 
R_forearm 0.000000 0.000000 0.000000 0.000000 0.000000 0.000000 10.000000 
R_front_hand 0.000000 0.000000 0.000000 0.000000 0.000000 0.000000 10.000000 
R_weapon_bone 0.000000 0.000000 0.000000 0.000000 0.000000 0.000000 10.000000 
R_front_hand01_01 0.000000 0.000000 0.000000 0.000000 0.000000 0.000000 10.000000 
R_front_hand02_01 0.000000 0.000000 0.000000 0.000000 0.000000 0.000000 10.000000 
R_front_hand03_01 0.000000 0.000000 0.000000 0.000000 0.000000 0.000000 10.000000 
R_front_hand01_02 0.000000 0.000000 0.000000 0.000000 0.000000 0.000000 10.000000 
R_front_hand02_02 0.000000 0.000000 0.000000 0.000000 0.000000 0.000000 10.000000 
R_front_hand03_02 0.000000 0.000000 0.000000 0.000000 0.000000 0.000000 10.000000 
null_rope01_connect 0.000000 0.000000 0.000000 0.000000 0.000000 0.000000 10.000000 
Rope1_Seg01 0.000000 0.000000 0.000000 0.000000 0.000000 0.000000 10.000000 
Rope1_Seg02 0.000000 0.000000 0.000000 0.000000 0.000000 0.000000 10.000000 
Rope1_Seg03 0.000000 0.000000 0.000000 0.000000 0.000000 0.000000 10.000000 
Rope1_Seg04 0.000000 0.000000 0.000000 0.000000 0.000000 0.000000 10.000000 
Rope1_Seg05 0.000000 0.000000 0.000000 0.000000 0.000000 0.000000 10.000000 
Rope1_Seg06 0.000000 0.000000 0.000000 0.000000 0.000000 0.000000 10.000000 
Rope1_Seg07 0.000000 0.000000 0.000000 0.000000 0.000000 0.000000 10.000000 
Rope1_Seg09 0.000000 0.000000 0.000000 0.000000 0.000000 0.000000 10.000000 
L_mid_hand01 0.000000 0.000000 0.000000 0.000000 0.000000 0.000000 10.000000 
L_mid_hand02 0.000000 0.000000 0.000000 0.000000 0.000000 0.000000 10.000000 
L_mid_hand03 0.000000 0.000000 0.000000 0.000000 0.000000 0.000000 10.000000 
null_rope02_connect 0.000000 0.000000 0.000000 0.000000 0.000000 0.000000 10.000000 
Rope2_Seg01 0.000000 0.000000 0.000000 0.000000 0.000000 0.000000 10.000000 
Rope2_Seg02 0.000000 0.000000 0.000000 0.000000 0.000000 0.000000 10.000000 
Rope2_Seg03 0.000000 0.000000 0.000000 0.000000 0.000000 0.000000 10.000000 
Rope2_Seg04 0.000000 0.000000 0.000000 0.000000 0.000000 0.000000 10.000000 
Rope2_Seg05 0.000000 0.000000 0.000000 0.000000 0.000000 0.000000 10.000000 
Rope2_Seg06 0.000000 0.000000 0.000000 0.000000 0.000000 0.000000 10.000000 
Rope2_Seg07 0.000000 0.000000 0.000000 0.000000 0.000000 0.000000 10.000000 
Rope2_Seg09 0.000000 0.000000 0.000000 0.000000 0.000000 0.000000 10.000000 
R_mid_hand01 0.000000 0.000000 0.000000 0.000000 0.000000 0.000000 10.000000 
R_mid_hand02 0.000000 0.000000 0.000000 0.000000 0.000000 0.000000 10.000000 
R_mid_hand03 0.000000 0.000000 0.000000 0.000000 0.000000 0.000000 10.000000 
spine02 0.000000 0.000000 0.000000 0.000000 0.000000 0.000000 10.000000 
spine03 0.000000 0.000000 0.000000 0.000000 0.000000 0.000000 10.000000 
pelvis 0.000000 0.000000 0.000000 0.000000 0.000000 0.000000 10.000000 
null_rope03_connect 0.000000 0.000000 0.000000 0.000000 0.000000 0.000000 10.000000 
null_rope04_connect 0.000000 0.000000 0.000000 0.000000 0.000000 0.000000 10.000000 
Rope3_Seg01 0.000000 0.000000 0.000000 0.000000 0.000000 0.000000 10.000000 
Rope3_Seg02 0.000000 0.000000 0.000000 0.000000 0.000000 0.000000 10.000000 
Rope3_Seg03 0.000000 0.000000 0.000000 0.000000 0.000000 0.000000 10.000000 
Rope3_Seg04 0.000000 0.000000 0.000000 0.000000 0.000000 0.000000 10.000000 
Rope3_Seg05 0.000000 0.000000 0.000000 0.000000 0.000000 0.000000 10.000000 
Rope3_Seg06 0.000000 0.000000 0.000000 0.000000 0.000000 0.000000 10.000000 
Rope3_Seg07 0.000000 0.000000 0.000000 0.000000 0.000000 0.000000 10.000000 
Rope3_Seg08 0.000000 0.000000 0.000000 0.000000 0.000000 0.000000 10.000000 
Rope3_Seg09 0.000000 0.000000 0.000000 0.000000 0.000000 0.000000 10.000000 
R_rear_hand01 0.000000 0.000000 0.000000 0.000000 0.000000 0.000000 10.000000 
R_rear_hand02 0.000000 0.000000 0.000000 0.000000 0.000000 0.000000 10.000000 
R_rear_hand03 0.000000 0.000000 0.000000 0.000000 0.000000 0.000000 10.000000 
Rope4_Seg01 0.000000 0.000000 0.000000 0.000000 0.000000 0.000000 10.000000 
Rope4_Seg02 0.000000 0.000000 0.000000 0.000000 0.000000 0.000000 10.000000 
Rope4_Seg03 0.000000 0.000000 0.000000 0.000000 0.000000 0.000000 10.000000 
Rope4_Seg04 0.000000 0.000000 0.000000 0.000000 0.000000 0.000000 10.000000 
Rope4_Seg05 0.000000 0.000000 0.000000 0.000000 0.000000 0.000000 10.000000 
Rope4_Seg06 0.000000 0.000000 0.000000 0.000000 0.000000 0.000000 10.000000 
Rope4_Seg07 0.000000 0.000000 0.000000 0.000000 0.000000 0.000000 10.000000 
Rope4_Seg08 0.000000 0.000000 0.000000 0.000000 0.000000 0.000000 10.000000 
Rope4_Seg09 0.000000 0.000000 0.000000 0.000000 0.000000 0.000000 10.000000 
L_rear_hand01 0.000000 0.000000 0.000000 0.000000 0.000000 0.000000 10.000000 
L_rear_hand02 0.000000 0.000000 0.000000 0.000000 0.000000 0.000000 10.000000 
L_rear_hand03 0.000000 0.000000 0.000000 0.000000 0.000000 0.000000 10.000000 
#Beginning of Data. Separated by tabs
#Fr	Tx	Ty	Tz	Rx	Ry	Rz	SF
[MASTER]
1 0.000000 0.000000 0.000000 0.001660 0.001660 0.001660 0.000000
2 0.000000 0.000000 0.000000 0.001660 0.001660 0.001660 0.000000
[root]
1 -16.502304 9.364137 1448.320068 -91.728889 -11.584497 -89.471619 1448.444336
2 -17.100950 4.415275 1449.840332 -90.845367 -12.976735 -90.683144 1449.947876
[chest]
1 -84.512650 -34.090519 0.000000 -2.170494 -0.006436 168.239609 91.129311
2 -84.512650 -34.090519 0.000000 -1.600659 0.523977 167.083771 91.129311
[L_mid_tent01]
1 27.299118 22.179106 -249.918732 -20.661392 12.026043 12.983022 252.381714
2 27.299122 22.179106 -249.918732 -15.584175 13.874259 26.873688 252.381714
[R_mid_tent01]
1 23.228794 24.509907 226.238495 -165.192200 -17.956036 24.056787 228.744751
2 23.228794 24.509907 226.238495 -170.368622 -23.931978 35.904346 228.744751
[spine01]
1 -0.361383 -0.195265 0.000000 0.001947 0.001312 22.051847 0.410763
2 -0.361383 -0.195265 0.000000 0.001972 0.001276 24.215902 0.410763
[Bip01_Neck]
1 165.484543 71.581718 0.000119 176.643677 -1.657967 43.431911 180.302734
2 165.484543 71.581718 0.000119 176.643677 -1.657967 43.431911 180.302734
[L_humerus]
1 -13.983130 -135.272980 -120.471481 -5.480129 68.873367 84.573456 181.680161
2 -13.983130 -135.272980 -120.471481 -18.342018 76.340645 75.253502 181.680161
[R_humerus]
1 -13.983309 -135.273102 125.287651 27.897165 -69.888802 67.752319 184.909012
2 -13.983309 -135.273102 125.287651 34.949116 -73.570328 60.843304 184.909012
[weapon_bone]
1 235.964890 -300.705902 0.000000 0.000000 -89.951546 -128.212341 382.234833
2 235.964890 -300.705902 0.000000 0.000000 -89.951546 -128.212341 382.234833
[Bip01_Head]
1 213.444366 185.715408 11.776912 4.962490 2.797846 -43.898743 283.173798
2 213.440521 185.726028 11.640190 4.965422 4.680889 -43.863182 283.172241
[eye_left_bone]
1 -24.626970 125.451866 -64.772606 0.000000 -90.000000 -99.840431 143.318359
2 -24.626970 125.451866 -64.772606 0.000000 -90.000000 -99.840431 143.318359
[eye_right_bone]
1 -24.626970 125.451866 64.327362 0.000000 -89.965736 80.156380 143.117676
2 -24.626970 125.451866 64.327362 0.000000 -89.965736 80.156380 143.117676
[L_forearm]
1 322.776093 0.000000 -0.000119 0.000396 -0.002314 -109.419975 322.776093
2 322.776093 0.000000 -0.000119 0.000396 -0.002314 -109.419975 322.776093
[L_front_hand]
1 241.149185 -0.042021 -3.300071 -178.667953 -1.835447 -27.422350 241.171753
2 241.149185 -0.042021 -3.300071 -178.667953 -1.835447 -27.422350 241.171753
[L_weapon_bone]
1 156.183838 0.000000 0.000000 0.000014 0.000007 0.000001 156.183838
2 156.183838 0.000000 0.000000 0.000014 0.000007 0.000001 156.183838
[L_front_hand01_01]
1 86.095154 20.947098 -0.655860 -0.366594 -0.477154 75.385574 88.609184
2 86.095154 20.947098 -0.655860 -0.366594 -0.477154 75.385574 88.609184
[L_front_hand02_01]
1 86.935165 -11.437475 24.513514 154.399796 -59.883835 -61.369587 91.046425
2 86.935165 -11.437475 24.513514 154.399796 -59.883835 -61.369587 91.046425
[L_front_hand03_01]
1 86.637497 -14.123976 -20.424902 -153.913849 58.118122 -62.702866 90.126129
2 86.637497 -14.123976 -20.424902 -153.913849 58.118122 -62.702866 90.126129
[L_front_hand01_02]
1 71.020905 -0.000179 0.000030 0.000322 -0.002325 -105.760704 71.020905
2 71.020905 -0.000179 0.000030 0.000321 -0.002325 -105.723465 71.020905
[L_front_hand02_02]
1 71.020927 -0.000119 0.000060 0.000322 -0.002325 -105.760704 71.020927
2 71.020927 -0.000119 0.000060 0.000321 -0.002325 -105.723465 71.020927
[L_front_hand03_02]
1 71.020905 -0.000060 0.000060 0.000322 -0.002325 -105.760704 71.020905
2 71.020905 -0.000060 0.000060 0.000321 -0.002325 -105.723465 71.020905
[R_forearm]
1 322.776428 -0.000060 0.000030 0.202103 0.065158 -108.062805 322.776428
2 322.776428 -0.000060 0.000030 0.202103 0.065158 -108.062805 322.776428
[R_front_hand]
1 238.847015 -0.006795 2.210259 -2.635298 -10.645461 -26.312506 238.857239
2 238.847015 -0.006795 2.210259 -2.635298 -10.645461 -26.312506 238.857239
[R_weapon_bone]
1 155.664093 0.002503 -0.000030 0.003487 0.001180 -90.988930 155.664078
2 155.664093 0.002503 -0.000030 0.003487 0.001180 -90.988930 155.664078
[R_front_hand01_01]
1 87.624611 14.231146 22.918642 -154.633499 -59.950619 61.746044 91.683487
2 87.624611 14.231146 22.918642 -154.633499 -59.950619 61.746044 91.683487
[R_front_hand02_01]
1 89.356956 14.367283 -19.491137 154.602661 58.302849 63.744389 92.579636
2 89.356956 14.367283 -19.491137 154.602661 58.302849 63.744389 92.579636
[R_front_hand03_01]
1 87.286232 -22.307278 -0.143439 0.162155 -0.423168 -75.767921 90.091743
2 87.286232 -22.307278 -0.143439 0.162155 -0.423168 -75.767921 90.091743
[R_front_hand01_02]
1 71.020905 0.000060 0.000119 0.002323 -0.000334 106.381714 71.020905
2 71.020905 0.000060 0.000119 0.002323 -0.000334 106.381714 71.020905
[R_front_hand02_02]
1 71.020844 -0.000030 -0.000119 0.002323 -0.000334 106.381714 71.020836
2 71.020844 -0.000030 -0.000119 0.002323 -0.000334 106.381714 71.020836
[R_front_hand03_02]
1 71.020905 0.000000 0.000030 0.002323 -0.000334 106.381714 71.020905
2 71.020905 0.000000 0.000030 0.002323 -0.000334 106.381714 71.020905
[null_rope01_connect]
1 328.732483 0.000000 -0.000238 -154.483337 -64.791321 -118.914307 328.732483
2 328.732483 0.000000 -0.000238 -152.194611 -68.116989 -133.689682 328.732483
[Rope1_Seg01]
1 -0.000038 -0.000076 0.000153 58.243618 4.049765 -123.944069 0.000175
2 -0.000037 -0.000073 0.000146 56.689346 -0.045924 -123.947487 0.000168
[Rope1_Seg02]
1 139.999863 -0.000179 0.000000 -15.774652 5.311828 2.629543 139.999863
2 139.999863 -0.000179 0.000000 -9.964296 4.504855 1.412336 139.999863
[Rope1_Seg03]
1 139.999924 0.000060 -0.000060 -17.076685 5.104063 3.681301 139.999924
2 139.999924 0.000060 -0.000060 -10.211969 4.189544 1.510364 139.999924
[Rope1_Seg04]
1 139.999924 -0.000060 -0.000119 -17.436241 4.385905 6.037109 139.999924
2 139.999924 -0.000060 -0.000119 -7.354030 1.644243 2.880071 139.999924
[Rope1_Seg05]
1 139.999832 0.000119 -0.000060 -3.154834 -3.186059 6.056233 139.999832
2 139.999832 0.000119 -0.000060 -2.826247 -0.168151 2.143125 139.999832
[Rope1_Seg06]
1 139.999954 0.000119 -0.000060 -0.259837 -2.144495 2.603690 139.999954
2 139.999954 0.000119 -0.000060 -2.079083 0.139923 1.349545 139.999954
[Rope1_Seg07]
1 139.999985 0.000060 0.000000 -0.623900 -0.870017 1.608922 139.999985
2 139.999985 0.000060 0.000000 -1.353018 0.062288 0.945628 139.999985
[Rope1_Seg09]
1 121.602913 0.000119 -0.000089 -89.793175 -1.359789 0.847147 121.602913
2 121.602913 0.000119 -0.000089 -89.793175 -1.359789 0.847147 121.602913
[L_mid_hand01]
1 103.859421 1.038730 8.195221 130.544373 -67.584534 -38.866943 104.187431
2 103.859421 1.038730 8.195221 128.584747 -66.574249 -36.738117 104.187431
[L_mid_hand02]
1 105.572853 -4.139662 -10.864139 -168.923172 43.409309 -73.498886 106.211075
2 105.572853 -4.139662 -10.864139 -167.717957 43.141708 -71.740593 106.211075
[L_mid_hand03]
1 104.641464 17.579376 -3.913581 -6.012627 17.808174 74.893669 106.179977
2 104.641464 17.579376 -3.913581 -6.429527 17.666080 73.526825 106.179977
[null_rope02_connect]
1 328.732849 0.000179 -0.000119 -140.208786 68.099197 -35.150627 328.732849
2 328.732849 0.000179 -0.000119 -135.743790 65.509415 -20.777784 328.732849
[Rope2_Seg01]
1 0.000076 0.000114 0.000000 35.885868 12.459162 -43.958652 0.000138
2 0.000067 0.000113 0.000000 54.176498 5.042777 -50.941292 0.000132
[Rope2_Seg02]
1 139.999741 -0.000060 -0.000119 32.952740 -12.502161 -5.477760 139.999756
2 139.999741 -0.000060 -0.000119 -0.067474 -2.723106 1.240080 139.999756
[Rope2_Seg03]
1 140.000107 0.000030 0.000000 -2.087219 -7.852246 4.553802 140.000107
2 140.000107 0.000030 0.000000 -13.746781 2.147564 4.317787 140.000107
[Rope2_Seg04]
1 139.999802 0.000000 -0.000060 7.999067 -9.850575 -1.594413 139.999802
2 139.999802 0.000000 -0.000060 40.807041 -12.579016 -17.225685 139.999802
[Rope2_Seg05]
1 139.999985 -0.000060 0.000119 10.881441 -10.947214 -5.671702 139.999985
2 139.999985 -0.000060 0.000119 14.095858 -19.440941 -5.508594 139.999985
[Rope2_Seg06]
1 139.999893 -0.000030 -0.000119 3.378002 -5.889583 -1.504915 139.999893
2 139.999893 -0.000030 -0.000119 2.680444 -8.634415 -0.200721 139.999893
[Rope2_Seg07]
1 139.999893 0.000060 -0.000060 1.376021 -3.371428 -0.464383 139.999893
2 139.999893 0.000060 -0.000060 1.129794 -5.189606 0.123742 139.999893
[Rope2_Seg09]
1 121.338966 0.000089 -0.000060 33.793236 -1.359788 -0.847141 121.338966
2 121.338966 0.000089 -0.000060 33.793236 -1.359788 -0.847141 121.338966
[R_mid_hand01]
1 104.680779 11.144459 -10.335981 -16.212063 45.237247 70.462852 105.778534
2 104.680779 11.144459 -10.335981 -16.756907 45.078602 69.693840 105.778534
[R_mid_hand02]
1 104.070427 2.443552 8.231699 49.067368 -67.749771 39.286453 104.424065
2 104.070427 2.443552 8.231699 49.966972 -67.318741 38.315926 104.424065
[R_mid_hand03]
1 106.028137 -11.221827 -5.996406 -177.101105 15.551026 -76.585571 106.788818
2 106.028137 -11.221827 -5.996406 -176.940826 15.523118 -75.998016 106.788818
[spine02]
1 129.756927 0.001550 0.000119 0.360061 -4.044797 -12.915058 129.756927
2 129.756927 0.001550 0.000119 0.360061 -4.044797 -12.915058 129.756927
[spine03]
1 78.614067 0.081635 -4.899006 1.896495 3.831288 16.473045 78.766602
2 78.614067 0.081635 -4.899006 1.896495 3.831288 16.473045 78.766602
[pelvis]
1 169.435242 0.051022 0.000000 -0.060465 -0.180225 14.087930 169.435257
2 169.435242 0.051022 0.000000 -0.060465 -0.180225 14.087930 169.435257
[null_rope03_connect]
1 -1.257226 -2.466202 137.391083 156.329987 -89.381348 -94.430771 137.418976
2 -1.257226 -2.466202 137.391083 -69.573906 -89.122177 130.704575 137.418976
[null_rope04_connect]
1 -1.259640 -2.480268 -137.844437 156.329987 -89.381348 -94.430771 137.872513
2 -1.259640 -2.480268 -137.844437 -69.573906 -89.122177 130.704575 137.872513
[Rope3_Seg01]
1 0.000010 0.000038 -0.000114 -133.967072 22.372114 -84.016563 0.000121
2 0.000010 0.000038 -0.000114 -132.520035 11.778312 -86.932762 0.000121
[Rope3_Seg02]
1 139.999924 -0.000119 0.000060 0.113885 -1.400946 -2.299805 139.999924
2 139.999924 -0.000119 0.000060 0.325426 -8.246950 -7.787875 139.999924
[Rope3_Seg03]
1 139.999924 -0.000119 0.000119 0.149518 -1.730810 -3.235876 139.999924
2 139.999924 -0.000119 0.000119 1.214857 -9.299153 -12.776851 139.999924
[Rope3_Seg04]
1 139.999924 0.000119 0.000000 0.113998 -2.270745 -4.666588 139.999924
2 139.999924 0.000119 0.000000 1.172417 -6.231901 -4.476608 139.999924
[Rope3_Seg05]
1 139.999924 -0.000238 0.000060 0.118555 1.372628 5.208110 139.999924
2 139.999924 -0.000238 0.000060 2.465328 1.436175 18.160501 139.999924
[Rope3_Seg06]
1 139.999893 -0.000119 -0.000060 0.243390 2.107949 6.667927 139.999893
2 139.999893 -0.000119 -0.000060 0.579338 1.228472 12.083713 139.999893
[Rope3_Seg07]
1 139.999771 0.000060 -0.000119 0.301092 0.859623 2.981648 139.999771
2 139.999771 0.000060 -0.000119 0.023806 0.366870 6.905195 139.999771
[Rope3_Seg08]
1 139.999985 -0.000060 0.000000 0.367120 0.559443 1.907658 139.999985
2 139.999985 -0.000060 0.000000 0.034899 0.228017 4.265902 139.999985
[Rope3_Seg09]
1 90.185997 -0.000179 -0.000060 89.793228 -1.359877 -0.847183 90.185997
2 90.185997 -0.000179 -0.000060 89.793228 -1.359877 -0.847183 90.185997
[R_rear_hand01]
1 103.366196 -6.073594 -10.757982 -177.714203 24.565960 -73.910950 104.101845
2 103.366196 -6.073594 -10.757982 -177.375809 24.533825 -73.108765 104.101845
[R_rear_hand02]
1 100.509819 12.039542 -7.992327 -12.874829 36.868488 72.167213 101.543350
2 100.509819 12.039542 -7.992327 -13.406411 36.702328 71.277184 101.543350
[R_rear_hand03]
1 101.539970 5.215704 5.435467 71.484581 -71.816628 21.513813 101.819031
2 101.539970 5.215704 5.435467 72.167244 -71.123337 20.795889 101.819031
[Rope4_Seg01]
1 0.000010 0.000038 -0.000153 43.300789 28.057421 -117.648643 0.000158
2 0.000010 0.000037 -0.000146 48.315125 24.829876 -106.958847 0.000151
[Rope4_Seg02]
1 139.999985 0.000060 0.000119 0.330067 2.592035 4.665512 139.999985
2 139.999985 0.000060 0.000119 -0.060035 -2.846831 1.487343 139.999985
[Rope4_Seg03]
1 139.999924 0.000000 -0.000238 0.118258 3.884732 6.937846 139.999924
2 139.999924 0.000000 -0.000238 0.017596 -4.397652 2.550072 139.999924
[Rope4_Seg04]
1 139.999985 0.000000 0.000119 -2.204895 10.660034 22.585411 139.999985
2 139.999985 0.000000 0.000119 0.350741 -11.069117 9.703444 139.999985
[Rope4_Seg05]
1 139.999802 -0.000060 -0.000119 0.658175 2.184794 -0.332054 139.999802
2 139.999802 -0.000060 -0.000119 -2.565097 2.091709 -13.873007 139.999802
[Rope4_Seg06]
1 139.999924 0.000000 0.000060 7.442044 -7.314194 -24.904264 139.999924
2 139.999924 0.000000 0.000060 -2.407075 3.770988 -9.636158 139.999924
[Rope4_Seg07]
1 139.999802 0.000000 0.000000 0.722250 -2.414867 -6.442936 139.999802
2 139.999802 0.000000 0.000000 -0.845149 1.258178 -4.098929 139.999802
[Rope4_Seg08]
1 139.999924 0.000000 0.000119 -1.341728 -1.279313 -3.327553 139.999924
2 139.999924 0.000000 0.000119 -2.022228 0.751933 -2.341601 139.999924
[Rope4_Seg09]
1 90.185791 0.000060 0.000060 -135.617828 2.228885 0.850567 90.185791
2 90.185791 0.000060 0.000060 -135.617828 2.228885 0.850567 90.185791
[L_rear_hand01]
1 101.696655 -8.392275 -7.654577 -12.874829 -36.868488 107.832764 102.329041
2 101.696655 -8.392275 -7.654577 -14.676043 -36.272404 110.857796 102.329041
[L_rear_hand02]
1 102.726799 -1.568258 5.773216 71.484581 71.816628 158.486160 102.900848
2 102.726799 -1.568258 5.773216 73.610298 69.437729 160.740753 102.900848
[L_rear_hand03]
1 104.552910 9.721220 -10.420293 -177.714203 -24.565960 -106.089035 105.519653
2 104.552910 9.721220 -10.420293 -176.571304 -24.441328 -108.830589 105.519653
